<?xml version="1.0" encoding="utf-8"?>
<!-- Generator: Adobe Illustrator 21.1.0, SVG Export Plug-In . SVG Version: 6.00 Build 0)  -->
<svg version="1.1" id="Layer_1" xmlns="http://www.w3.org/2000/svg" xmlns:xlink="http://www.w3.org/1999/xlink" x="0px" y="0px"
	 viewBox="0 0 119.3 56.1" style="enable-background:new 0 0 119.3 56.1;" xml:space="preserve">
<style type="text/css">
	.st0{fill:#007EA3;}
	.st1{fill-rule:evenodd;clip-rule:evenodd;fill:#499532;}
</style>
<g>
	<path class="st0" d="M33.7,14h2.8c3.2,0,6,1.1,6,5.2c0,4.1-2.8,5.2-6,5.2h-2.8V14z M35.8,22.8H37c1.7,0,3.4-1.3,3.4-3.6
		c0-2.3-1.7-3.6-3.4-3.6h-1.2V22.8z"/>
	<path class="st0" d="M43.6,14h6.1v1.6h-4v2.6h3.7v1.6h-3.7v2.9h4.1v1.6h-6.2V14z"/>
	<path class="st0" d="M53.7,15.6h-3V14h8v1.6h-3v8.7h-2.1V15.6z"/>
	<path class="st0" d="M42.7,30l-0.8,1c1,1,1.5,2.3,1.5,4c0,3.1-1.8,5.4-5.1,5.4c-1.2,0-2.2-0.3-3-0.8l-0.8,1.1l-0.7-0.5l0.9-1.1
		c-0.9-0.9-1.4-2.3-1.4-4c0-3.2,1.8-5.3,5.1-5.3c1.2,0,2.2,0.3,2.9,0.8l0.8-1L42.7,30z M40.1,32c-0.4-0.4-1-0.7-1.8-0.7
		c-2.1,0-2.9,1.9-2.9,3.7c0,0.8,0.2,1.7,0.5,2.3L40.1,32z M36.4,38.1c0.4,0.4,1.1,0.7,1.9,0.7c2.1,0,2.9-1.9,2.9-3.8
		c0-0.8-0.2-1.7-0.6-2.3L36.4,38.1z"/>
	<path class="st0" d="M44.4,29.9h2.1v4.5l3.7-4.5h2.6l-4.3,4.9l4.4,5.5h-2.7l-3.7-4.8h0v4.8h-2.1V29.9z"/>
	<path class="st0" d="M57.4,29.7c3.3,0,5.1,2.2,5.1,5.3c0,3.1-1.8,5.4-5.1,5.4c-3.3,0-5.1-2.2-5.1-5.4
		C52.3,31.8,54.1,29.7,57.4,29.7z M57.4,38.8c2.1,0,2.9-1.9,2.9-3.8c0-1.8-0.8-3.7-2.9-3.7c-2.1,0-2.9,1.9-2.9,3.7
		C54.5,36.9,55.3,38.8,57.4,38.8z"/>
	<path class="st0" d="M63.5,29.9h2.1v8.7h4v1.6h-6.1V29.9z"/>
	<path class="st0" d="M74.9,29.7c3.3,0,5.1,2.2,5.1,5.3c0,3.1-1.8,5.4-5.1,5.4c-3.3,0-5.1-2.2-5.1-5.4
		C69.8,31.8,71.6,29.7,74.9,29.7z M74.9,38.8c2.1,0,2.9-1.9,2.9-3.8c0-1.8-0.8-3.7-2.9-3.7c-2.1,0-2.9,1.9-2.9,3.7
		C72,36.9,72.8,38.8,74.9,38.8z"/>
	<path class="st0" d="M89.4,31.9c-0.8-0.4-1.8-0.5-2.7-0.5c-2.4,0-3.8,1.6-3.8,3.8c0,2.1,1.3,3.7,3.5,3.7c0.6,0,1-0.1,1.4-0.2v-2.7
		h-2.2v-1.6h4.2v5.6c-1.1,0.3-2.2,0.5-3.4,0.5c-3.4,0-5.7-1.7-5.7-5.2c0-3.6,2.2-5.5,5.7-5.5c1.2,0,2.2,0.2,3,0.4L89.4,31.9z"/>
	<path class="st0" d="M91.8,29.9h2.1v10.4h-2.1V29.9z"/>
	<path class="st0" d="M101.4,31.8c-0.7-0.3-1.4-0.4-2.1-0.4c-0.7,0-1.6,0.3-1.6,1.4c0,1.8,4.5,1,4.5,4.5c0,2.3-1.8,3.1-3.9,3.1
		c-1.1,0-1.6-0.2-2.7-0.4l0.2-1.9c0.7,0.4,1.5,0.6,2.3,0.6c0.8,0,1.8-0.4,1.8-1.3c0-2-4.5-1.2-4.5-4.6c0-2.3,1.8-3.2,3.6-3.2
		c0.9,0,1.7,0.1,2.5,0.4L101.4,31.8z"/>
	<path class="st0" d="M103.5,29.9h2.1v4.5l3.7-4.5h2.6l-4.3,4.9l4.4,5.5h-2.7l-3.7-4.8h0v4.8h-2.1V29.9z"/>
	<path class="st0" d="M113.1,29.9h6.1v1.6h-4v2.6h3.7v1.6h-3.7v2.9h4.1v1.6h-6.2V29.9z"/>
	<path class="st0" d="M33.5,45.7h2.2c2.2,0,4.9-0.1,4.9,2.8c0,1.2-0.8,2.2-2.1,2.4v0c0.6,0,0.9,0.6,1.1,1.1l1.7,4.1H39l-1.2-3.2
		c-0.3-0.8-0.6-1.1-1.4-1.1h-0.7v4.3h-2.1V45.7z M35.6,50.1h0.7c1,0,2.2-0.2,2.2-1.4c0-1.2-1.2-1.4-2.2-1.4h-0.7V50.1z"/>
	<path class="st0" d="M45.8,45.7h2.3l4.1,10.4h-2.3L49,53.7h-4.2l-0.9,2.4h-2.2L45.8,45.7z M47,42.2c0.9,0,1.6,0.7,1.6,1.6
		c0,0.9-0.7,1.6-1.6,1.6c-0.9,0-1.6-0.7-1.6-1.6C45.4,42.9,46.1,42.2,47,42.2z M46.9,47.8L46.9,47.8l-1.5,4.3h3L46.9,47.8z M47,44.6
		c0.4,0,0.8-0.3,0.8-0.8c0-0.4-0.3-0.8-0.8-0.8c-0.4,0-0.8,0.3-0.8,0.8C46.2,44.2,46.5,44.6,47,44.6z"/>
	<path class="st0" d="M52.9,45.7h2.8c3.2,0,6,1.1,6,5.2c0,4.1-2.8,5.2-6,5.2h-2.8V45.7z M55,54.5h1.2c1.7,0,3.4-1.3,3.4-3.6
		c0-2.3-1.7-3.6-3.4-3.6H55V54.5z"/>
</g>
<path class="st0" d="M22.5,45.8c-0.8,2.2-2.6,3.6-5.1,3.8c-0.4,0-0.7,0.1-1,0.1v3.9c0,0.6,0.3,0.8,0.5,0.9c0,0,1,0.4,1,0.4
	c0.7,0.3,1,0.4,1,0.7c0,0.4-0.6,0.4-1,0.4h-2c-0.7,0-0.8-0.1-0.8-0.8v-5.5c-0.4,0-0.9,0.1-1.3,0.1v5.4c0,0.7-0.2,0.8-0.8,0.8h-2
	c-0.4,0-1,0-1-0.4c0-0.3,0.3-0.4,1-0.7c0,0,1-0.4,1-0.4c0.2-0.1,0.5-0.3,0.5-0.9V50c-1.2,0-3.5,0.1-4.8,0.2c-0.3,0-0.6,0-0.8,0
	c-1.6,0-3.1-0.4-3.4-0.9c-0.9-1.6,2.7-3.1,3.6-3.6c2.3-1.4,5-2.4,4.7-4.5c-0.2-1.2-1.9-1.5-2-3.4c-0.1-1.8,1.2-3.1,2.6-3.7
	c0.2-0.1,0.3-0.2,0.4-0.4c0,0,0.8-1.9,1.3-3.2c0.4-0.9,0.7-0.7,0.9,0c0.4,1.2,1.4,2.9,1.7,3.7c0.9,0.8,3,2.8,3.5,3.4
	C22.5,40,23.4,43.1,22.5,45.8z M12.9,35.7c-0.5,0-0.9,0.4-1,1c-0.1,0.6,0.3,1.1,0.8,1.2c0.5,0,0.9-0.4,1-1
	C13.8,36.3,13.4,35.8,12.9,35.7z M11.3,47.7c0.9,0.1,5.2,0.2,7.3-1.8c2.1-2,1.1-4.3,0.2-5.3c-0.7-0.9-1.6-1.2-1.2-0.4
	c0.4,0.9,1.7,3.1,0,4.6c-1.6,1.5-3.6,1.9-5.9,2.1C9.3,47.1,10.3,47.7,11.3,47.7z"/>
<g>
	<g>
		<path class="st1" d="M25.9,13.3c0.8,0,1.6,0,2.3,0c0.1,0,0.2,0,0.4,0c0.2,0,0.3-0.1,0.3-0.3c0-0.1,0-0.2,0-0.3
			c0-0.4-0.1-0.9-0.2-1.3c-0.2-1-0.5-2-0.9-2.9c-0.2-0.4-0.4-0.8-0.6-1.1C27.2,7.1,27,6.9,26.7,7c-0.3,0-0.5,0-0.8,0
			c-1.1,0-2.3,0-3.4,0c-0.1,0-0.2,0-0.3,0C22,7,21.9,7.1,22,7.3c0,0.1,0,0.2,0.1,0.3c0.2,0.6,0.3,1.2,0.4,1.8
			c0.1,0.6,0.2,1.1,0.3,1.7c0.1,0.4,0.1,0.8,0.1,1.3c0,0.2,0,0.3,0,0.5c0,0.2,0.1,0.3,0.4,0.4c0.1,0,0.2,0,0.3,0
			C24.4,13.3,25.2,13.3,25.9,13.3z"/>
		<path class="st1" d="M3,13.3c0.8,0,1.6,0,2.3,0c0.1,0,0.2,0,0.3,0C5.9,13.2,6,13.1,6,13c0-0.1,0-0.1,0-0.2c0-0.5,0.1-0.9,0.1-1.4
			c0-0.4,0.1-0.9,0.2-1.3C6.5,9.3,6.7,8.4,7,7.6C7,7.5,7,7.4,7,7.3C7,7.1,6.9,7,6.8,7C6.7,7,6.6,7,6.5,7C5.3,7,4.2,7,3.1,7
			C2.8,7,2.5,7,2.2,7C2,7,1.8,7.1,1.7,7.3c0,0.1-0.1,0.1-0.1,0.2c-0.5,1.1-1,2.2-1.2,3.3c-0.1,0.6-0.2,1.2-0.3,1.8
			c0,0.1,0,0.3,0,0.4c0,0.2,0.1,0.3,0.3,0.3c0.1,0,0.2,0,0.3,0C1.5,13.3,2.2,13.3,3,13.3z"/>
		<path class="st1" d="M24.5,21.3c0.4,0,0.8,0,1.2,0c0.3,0,0.6,0,1,0c0.2,0,0.4-0.1,0.5-0.3c0.1-0.1,0.1-0.2,0.2-0.2
			c0.6-1.1,1-2.3,1.3-3.5c0.1-0.5,0.2-1,0.3-1.6c0-0.2,0-0.3,0-0.5c0-0.2-0.1-0.3-0.3-0.3c-0.1,0-0.2,0-0.4,0c-1.6,0-3.1,0-4.7,0
			c-0.1,0-0.2,0-0.2,0c-0.3,0-0.4,0.1-0.5,0.4c0,0.1,0,0.2,0,0.4c0,0.4-0.1,0.9-0.1,1.3c-0.1,0.5-0.2,1.1-0.3,1.6
			c-0.1,0.7-0.3,1.3-0.5,2c0,0.1,0,0.2-0.1,0.3c0,0.2,0.1,0.3,0.2,0.3c0.1,0,0.2,0,0.3,0C23.2,21.3,23.8,21.3,24.5,21.3z"/>
		<path class="st1" d="M3,15c-0.8,0-1.6,0-2.3,0c-0.1,0-0.2,0-0.4,0c-0.1,0-0.2,0.1-0.3,0.2c0,0.1,0,0.2,0,0.3
			c0.1,0.5,0.1,0.9,0.2,1.4c0.2,1,0.5,2.1,0.9,3c0.2,0.3,0.3,0.7,0.5,1c0.1,0.3,0.4,0.4,0.6,0.4c0.2,0,0.3,0,0.5,0
			c1.2,0,2.5,0,3.7,0c0.1,0,0.2,0,0.3,0C6.9,21.2,7,21.1,7,21c0-0.1,0-0.2-0.1-0.3c-0.2-0.7-0.4-1.4-0.5-2.1
			c-0.1-0.5-0.2-0.9-0.2-1.4c-0.1-0.4-0.1-0.8-0.1-1.3c0-0.2,0-0.3,0-0.5C6,15.1,5.9,15,5.7,15c-0.1,0-0.2,0-0.3,0
			C4.6,15,3.8,15,3,15z"/>
		<path class="st1" d="M13.6,10.1c0-0.8,0-1.7,0-2.5c0-0.1,0-0.2,0-0.2c0-0.3-0.2-0.4-0.4-0.4c-0.1,0-0.2,0-0.3,0
			c-1.1,0-2.2,0-3.4,0c-0.1,0-0.2,0-0.3,0C9.1,7,8.9,7.1,8.8,7.3C8.8,7.4,8.7,7.5,8.7,7.6C8.5,8.3,8.3,9,8.1,9.7
			C8,10.3,7.9,11,7.8,11.6c0,0.3-0.1,0.6-0.1,0.9c0,0.1,0,0.3,0,0.4c0,0.2,0.1,0.3,0.3,0.4c0.1,0,0.2,0,0.3,0c1.5,0,3.1,0,4.6,0
			c0.1,0,0.2,0,0.3,0c0.2,0,0.3-0.1,0.3-0.3c0-0.1,0-0.2,0-0.3C13.6,11.8,13.6,11,13.6,10.1z"/>
		<path class="st1" d="M13.6,18.1c0-0.8,0-1.7,0-2.5c0-0.1,0-0.2,0-0.2c0-0.3-0.1-0.4-0.4-0.4c0,0-0.1,0-0.1,0c-0.5,0-1,0-1.5,0
			c-1.1,0-2.3,0-3.4,0c-0.3,0-0.5,0.2-0.5,0.5c0,0.2,0,0.5,0,0.7c0,0.4,0.1,0.9,0.2,1.3c0.1,0.9,0.3,1.9,0.6,2.8
			c0.1,0.2,0.1,0.4,0.2,0.7c0.1,0.3,0.3,0.4,0.6,0.4c0.1,0,0.2,0,0.2,0c1.1,0,2.2,0,3.3,0c0.1,0,0.2,0,0.3,0c0.2,0,0.4-0.1,0.4-0.3
			c0-0.1,0-0.2,0-0.3C13.6,19.8,13.6,19,13.6,18.1z"/>
		<path class="st1" d="M15.3,10.1c0,0.8,0,1.7,0,2.5c0,0.1,0,0.2,0,0.2c0,0.2,0.1,0.4,0.4,0.4c0.1,0,0.2,0,0.3,0c1.5,0,3.1,0,4.6,0
			c0.1,0,0.2,0,0.3,0c0.2,0,0.3-0.1,0.3-0.3c0-0.1,0-0.1,0-0.2c0-0.3,0-0.6-0.1-0.9c-0.1-0.5-0.1-1-0.2-1.5
			c-0.1-0.9-0.4-1.8-0.6-2.6c0-0.2-0.1-0.3-0.2-0.5C20.1,7.1,19.9,7,19.7,7c-0.1,0-0.2,0-0.3,0c-1.1,0-2.2,0-3.4,0
			c-0.1,0-0.2,0-0.3,0c-0.3,0-0.4,0.2-0.4,0.4c0,0.1,0,0.2,0,0.2C15.3,8.4,15.3,9.3,15.3,10.1z"/>
		<path class="st1" d="M15.3,18.1c0,0.8,0,1.7,0,2.5c0,0.1,0,0.2,0,0.2c0,0.1,0,0.2,0.2,0.3c0.1,0.1,0.2,0.1,0.3,0.1
			c0.1,0,0.3,0,0.4,0c0.7,0,1.4,0,2.1,0c0.5,0,0.9,0,1.4,0c0.3,0,0.5-0.1,0.6-0.4c0-0.1,0.1-0.3,0.1-0.4c0.3-0.8,0.5-1.7,0.6-2.5
			c0.1-0.5,0.2-1.1,0.2-1.6c0-0.2,0-0.4,0.1-0.6c0-0.1,0-0.3,0-0.4c0-0.2-0.1-0.3-0.3-0.4c-0.1,0-0.2,0-0.3,0c-1.5,0-3.1,0-4.6,0
			c-0.1,0-0.2,0-0.3,0c-0.2,0-0.3,0.1-0.3,0.3c0,0.1,0,0.2,0,0.3C15.3,16.5,15.3,17.3,15.3,18.1z"/>
		<path class="st1" d="M23.5,5.3c0.6,0,1.2,0,1.8,0c0.1,0,0.2,0,0.3,0c0.2,0,0.2-0.2,0.1-0.3c0-0.1-0.1-0.1-0.1-0.2
			c-0.2-0.2-0.4-0.4-0.6-0.6c-0.6-0.6-1.2-1.2-1.9-1.7c-1-0.7-2-1.3-3.1-1.8c-0.4-0.2-0.8-0.3-1.2-0.4c-0.1,0-0.2-0.1-0.4,0
			c-0.1,0-0.1,0.1-0.1,0.2c0,0.1,0,0.1,0.1,0.2c0.1,0.1,0.2,0.3,0.3,0.4c0.7,1,1.3,2,1.9,3c0.1,0.3,0.3,0.5,0.4,0.8
			c0.1,0.3,0.4,0.4,0.7,0.4c0,0,0.1,0,0.1,0C22.3,5.3,22.9,5.3,23.5,5.3z"/>
		<path class="st1" d="M23.5,23c-0.6,0-1.2,0-1.8,0c-0.1,0-0.1,0-0.2,0c-0.2,0-0.4,0.1-0.5,0.3c-0.1,0.1-0.1,0.2-0.1,0.3
			c-0.6,1.3-1.3,2.4-2.1,3.6c-0.1,0.2-0.3,0.4-0.4,0.6c0,0.1-0.1,0.1-0.1,0.2c0,0.1,0,0.1,0.1,0.2c0,0,0.1,0,0.1,0
			c0.1,0,0.2,0,0.4-0.1c1.4-0.4,2.6-1.1,3.8-1.9c0.7-0.5,1.3-1,1.8-1.5c0.3-0.3,0.6-0.6,0.9-1c0.1-0.1,0.1-0.2,0.2-0.2
			c0.1-0.2,0-0.3-0.2-0.3c-0.1,0-0.2,0-0.3,0C24.6,23,24.1,23,23.5,23z"/>
		<path class="st1" d="M5.5,5.3c0.6,0,1.2,0,1.8,0c0.1,0,0.1,0,0.2,0c0.2,0,0.4-0.1,0.5-0.3C8,4.9,8,4.8,8,4.7
			c0.6-1.2,1.2-2.4,2-3.5c0.1-0.2,0.3-0.4,0.4-0.6c0-0.1,0.1-0.1,0.1-0.2c0-0.1,0-0.2-0.1-0.2c0,0-0.1,0-0.1,0c-0.1,0-0.2,0-0.3,0.1
			C9.3,0.5,8.5,0.8,7.9,1.2C7.1,1.6,6.4,2,5.7,2.6C5.2,2.9,4.8,3.3,4.4,3.7c-0.3,0.3-0.6,0.7-1,1C3.4,4.7,3.3,4.8,3.3,4.9
			c-0.1,0.2,0,0.3,0.2,0.3c0.1,0,0.2,0,0.3,0C4.3,5.3,4.9,5.3,5.5,5.3z"/>
		<path class="st1" d="M5.5,23c-0.6,0-1.2,0-1.8,0c-0.1,0-0.2,0-0.3,0c-0.2,0-0.2,0.2-0.2,0.3c0,0.1,0.1,0.2,0.2,0.3
			c0.4,0.5,0.8,0.9,1.3,1.3c1.1,1,2.3,1.8,3.6,2.4c0.6,0.3,1.1,0.5,1.7,0.7c0.1,0,0.2,0.1,0.4,0c0.1,0,0.1-0.1,0.1-0.2
			c0-0.1,0-0.1-0.1-0.2c-0.1-0.1-0.2-0.3-0.3-0.4c-0.7-1-1.3-2-1.9-3C8.2,24,8.1,23.7,8,23.4C7.8,23.1,7.6,23,7.3,23c0,0,0,0-0.1,0
			C6.6,23,6.1,23,5.5,23z"/>
		<path class="st1" d="M15.3,2.6c0,0.7,0,1.4,0,2c0,0.1,0,0.1,0,0.2c0,0.3,0.2,0.4,0.4,0.4c0,0,0.1,0,0.1,0c1,0,1.9,0,2.9,0
			c0.1,0,0.2,0,0.3-0.1c0.1,0,0.2-0.1,0.2-0.2c0-0.1,0-0.1,0-0.2c0-0.1-0.1-0.2-0.1-0.3c-0.5-0.9-1-1.7-1.6-2.5
			c-0.5-0.6-1-1.2-1.5-1.8c-0.1-0.1-0.2-0.2-0.3-0.2c-0.1-0.1-0.2,0-0.3,0.1c0,0,0,0.1,0,0.1c0,0.1,0,0.2,0,0.3
			C15.3,1.2,15.3,1.9,15.3,2.6z"/>
		<path class="st1" d="M13.6,2.6c0-0.3,0-0.5,0-0.8c0-0.5,0-0.9,0-1.4c0-0.1,0-0.1,0-0.2C13.6,0,13.4,0,13.3,0c0,0-0.1,0.1-0.1,0.1
			c-0.3,0.3-0.5,0.5-0.8,0.8c-0.7,0.8-1.3,1.6-1.9,2.5c-0.2,0.4-0.5,0.8-0.7,1.2c0,0.1-0.1,0.2-0.1,0.3c0,0.1,0,0.2,0.2,0.3
			c0.1,0,0.2,0,0.3,0c0.9,0,1.9,0,2.8,0c0.1,0,0.2,0,0.2,0c0.2,0,0.3-0.1,0.3-0.3c0-0.1,0-0.2,0-0.3C13.6,3.9,13.6,3.3,13.6,2.6z"/>
		<path class="st1" d="M13.6,25.7c0-0.7,0-1.4,0-2c0-0.1,0-0.2,0-0.2c0-0.3-0.2-0.4-0.4-0.4c-0.1,0-0.1,0-0.2,0c-0.1,0-0.2,0-0.4,0
			c-0.8,0-1.6,0-2.4,0c-0.1,0-0.2,0-0.3,0c-0.1,0-0.2,0.1-0.2,0.3c0,0.1,0,0.1,0,0.2c0,0.1,0.1,0.2,0.1,0.3c0.4,0.8,0.8,1.5,1.3,2.2
			c0.5,0.7,1,1.3,1.6,1.9c0.1,0.1,0.3,0.3,0.4,0.4c0.2,0.1,0.3,0.1,0.4-0.1c0-0.1,0-0.2,0-0.4C13.6,27,13.6,26.4,13.6,25.7z"/>
		<path class="st1" d="M15.3,25.7c0,0.2,0,0.5,0,0.7c0,0.5,0,1,0,1.5c0,0.1,0,0.2,0,0.2c0,0.1,0.1,0.2,0.3,0.1
			c0.1,0,0.1-0.1,0.2-0.1c0.2-0.2,0.5-0.5,0.7-0.7c0.7-0.8,1.3-1.6,1.8-2.5c0.3-0.4,0.5-0.9,0.8-1.4c0-0.1,0.1-0.2,0.1-0.3
			c0-0.1,0-0.2-0.2-0.3c-0.1,0-0.2,0-0.3,0c-0.9,0-1.9,0-2.8,0c-0.1,0-0.2,0-0.2,0c-0.2,0-0.3,0.1-0.3,0.3c0,0.1,0,0.2,0,0.3
			C15.3,24.3,15.3,25,15.3,25.7z"/>
		<path class="st1" d="M25.9,13.3c-0.8,0-1.6,0-2.3,0c-0.1,0-0.2,0-0.3,0c-0.2,0-0.3-0.1-0.4-0.4c0-0.2,0-0.3,0-0.5
			c0-0.4-0.1-0.8-0.1-1.3c-0.1-0.6-0.2-1.1-0.3-1.7c-0.1-0.6-0.3-1.2-0.4-1.8C22,7.5,22,7.4,22,7.3C21.9,7.1,22,7,22.2,7
			c0.1,0,0.2,0,0.3,0c1.1,0,2.3,0,3.4,0c0.3,0,0.5,0,0.8,0c0.3,0,0.5,0.1,0.6,0.4c0.2,0.4,0.4,0.8,0.6,1.1c0.4,0.9,0.7,1.9,0.9,2.9
			c0.1,0.4,0.2,0.9,0.2,1.3c0,0.1,0,0.2,0,0.3c0,0.2-0.1,0.3-0.3,0.3c-0.1,0-0.2,0-0.4,0C27.5,13.3,26.7,13.3,25.9,13.3z"/>
		<path class="st1" d="M3,13.3c-0.8,0-1.6,0-2.3,0c-0.1,0-0.2,0-0.3,0C0.1,13.2,0,13.1,0,13c0-0.1,0-0.3,0-0.4
			c0.1-0.6,0.2-1.2,0.3-1.8C0.6,9.6,1,8.5,1.6,7.5c0-0.1,0.1-0.1,0.1-0.2C1.8,7.1,2,7,2.2,7c0.3,0,0.5,0,0.8,0c1.1,0,2.3,0,3.4,0
			c0.1,0,0.2,0,0.3,0C6.9,7,7,7.1,7,7.3C7,7.4,7,7.5,7,7.6c-0.2,0.8-0.4,1.7-0.6,2.5c-0.1,0.4-0.1,0.9-0.2,1.3
			c-0.1,0.5-0.1,0.9-0.1,1.4c0,0.1,0,0.1,0,0.2c0,0.2-0.2,0.3-0.3,0.3c-0.1,0-0.2,0-0.3,0C4.6,13.3,3.8,13.3,3,13.3z"/>
		<path class="st1" d="M24.5,21.3c-0.7,0-1.4,0-2.1,0c-0.1,0-0.2,0-0.3,0c-0.2,0-0.2-0.1-0.2-0.3c0-0.1,0-0.2,0.1-0.3
			c0.2-0.7,0.4-1.3,0.5-2c0.1-0.5,0.2-1.1,0.3-1.6c0.1-0.4,0.1-0.9,0.1-1.3c0-0.1,0-0.2,0-0.4c0-0.3,0.2-0.4,0.5-0.4
			c0.1,0,0.2,0,0.2,0c1.6,0,3.1,0,4.7,0c0.1,0,0.2,0,0.4,0c0.2,0,0.3,0.1,0.3,0.3c0,0.2,0,0.3,0,0.5c-0.1,0.5-0.1,1-0.3,1.6
			c-0.3,1.2-0.7,2.4-1.3,3.5c0,0.1-0.1,0.2-0.2,0.2c-0.1,0.2-0.3,0.3-0.5,0.3c-0.3,0-0.6,0-1,0C25.3,21.3,24.9,21.3,24.5,21.3z"/>
		<path class="st1" d="M3,15c0.8,0,1.6,0,2.3,0c0.1,0,0.2,0,0.3,0C5.9,15,6,15.1,6,15.3c0,0.2,0,0.3,0,0.5c0,0.4,0.1,0.9,0.1,1.3
			c0.1,0.5,0.1,0.9,0.2,1.4c0.1,0.7,0.3,1.4,0.5,2.1C7,20.8,7,20.9,7,21c0,0.2-0.1,0.3-0.2,0.3c-0.1,0-0.2,0-0.3,0
			c-1.2,0-2.5,0-3.7,0c-0.2,0-0.3,0-0.5,0c-0.3,0-0.5-0.1-0.6-0.4c-0.2-0.3-0.3-0.7-0.5-1c-0.4-1-0.7-2-0.9-3
			C0.1,16.4,0.1,16,0,15.5c0-0.1,0-0.2,0-0.3c0-0.1,0.1-0.2,0.3-0.2c0.1,0,0.2,0,0.4,0C1.5,15,2.2,15,3,15z"/>
		<path class="st1" d="M13.6,10.1c0,0.8,0,1.7,0,2.5c0,0.1,0,0.2,0,0.3c0,0.2-0.1,0.3-0.3,0.3c-0.1,0-0.2,0-0.3,0
			c-1.5,0-3.1,0-4.6,0c-0.1,0-0.2,0-0.3,0c-0.2,0-0.3-0.1-0.3-0.4c0-0.1,0-0.3,0-0.4c0-0.3,0.1-0.6,0.1-0.9C7.9,11,8,10.3,8.1,9.7
			C8.3,9,8.5,8.3,8.7,7.6c0-0.1,0.1-0.2,0.1-0.3C8.9,7.1,9.1,7,9.3,7c0.1,0,0.2,0,0.3,0c1.1,0,2.2,0,3.4,0c0.1,0,0.2,0,0.3,0
			c0.3,0,0.4,0.2,0.4,0.4c0,0.1,0,0.2,0,0.2C13.6,8.4,13.6,9.3,13.6,10.1z"/>
		<path class="st1" d="M13.6,18.1c0,0.8,0,1.7,0,2.5c0,0.1,0,0.2,0,0.3c0,0.2-0.2,0.3-0.4,0.3c-0.1,0-0.2,0-0.3,0
			c-1.1,0-2.2,0-3.3,0c-0.1,0-0.2,0-0.2,0c-0.3,0-0.5-0.1-0.6-0.4c-0.1-0.2-0.1-0.4-0.2-0.7c-0.3-0.9-0.5-1.9-0.6-2.8
			c-0.1-0.4-0.1-0.9-0.2-1.3c0-0.2,0-0.5,0-0.7c0-0.3,0.1-0.5,0.5-0.5c1.1,0,2.3,0,3.4,0c0.5,0,1,0,1.5,0c0,0,0.1,0,0.1,0
			c0.3,0,0.4,0.2,0.4,0.4c0,0.1,0,0.2,0,0.2C13.6,16.5,13.6,17.3,13.6,18.1z"/>
		<path class="st1" d="M15.3,10.1c0-0.8,0-1.7,0-2.5c0-0.1,0-0.2,0-0.2c0-0.3,0.2-0.4,0.4-0.4c0.1,0,0.2,0,0.3,0c1.1,0,2.2,0,3.4,0
			c0.1,0,0.2,0,0.3,0c0.2,0,0.4,0.1,0.5,0.3c0.1,0.1,0.1,0.3,0.2,0.5c0.3,0.9,0.5,1.7,0.6,2.6c0.1,0.5,0.1,1,0.2,1.5
			c0,0.3,0.1,0.6,0.1,0.9c0,0.1,0,0.1,0,0.2c0,0.2-0.1,0.3-0.3,0.3c-0.1,0-0.2,0-0.3,0c-1.5,0-3.1,0-4.6,0c-0.1,0-0.2,0-0.3,0
			c-0.3,0-0.4-0.2-0.4-0.4c0-0.1,0-0.2,0-0.2C15.3,11.8,15.3,11,15.3,10.1z"/>
		<path class="st1" d="M15.3,18.1c0-0.8,0-1.7,0-2.5c0-0.1,0-0.2,0-0.3c0-0.2,0.1-0.3,0.3-0.3c0.1,0,0.2,0,0.3,0c1.5,0,3.1,0,4.6,0
			c0.1,0,0.2,0,0.3,0c0.2,0,0.3,0.2,0.3,0.4c0,0.1,0,0.3,0,0.4c0,0.2,0,0.4-0.1,0.6c0,0.5-0.1,1.1-0.2,1.6c-0.2,0.9-0.4,1.7-0.6,2.5
			c0,0.1-0.1,0.3-0.1,0.4c-0.1,0.2-0.3,0.4-0.6,0.4c-0.5,0-0.9,0-1.4,0c-0.7,0-1.4,0-2.1,0c-0.1,0-0.3,0-0.4,0c-0.1,0-0.2,0-0.3-0.1
			c-0.1-0.1-0.1-0.2-0.2-0.3c0-0.1,0-0.2,0-0.2C15.3,19.8,15.3,19,15.3,18.1z"/>
		<path class="st1" d="M23.5,5.3c-0.6,0-1.1,0-1.7,0c0,0-0.1,0-0.1,0c-0.3,0-0.5-0.1-0.7-0.4c-0.1-0.3-0.2-0.5-0.4-0.8
			C20.1,3,19.5,2,18.7,1c-0.1-0.1-0.2-0.3-0.3-0.4c0-0.1-0.1-0.1-0.1-0.2c0-0.1,0-0.2,0.1-0.2c0.1,0,0.3,0,0.4,0
			c0.4,0.1,0.8,0.3,1.2,0.4c1.1,0.5,2.1,1,3.1,1.8c0.7,0.5,1.3,1,1.9,1.7c0.2,0.2,0.4,0.4,0.6,0.6c0,0,0.1,0.1,0.1,0.2
			c0.1,0.2,0,0.3-0.1,0.3c-0.1,0-0.2,0-0.3,0C24.6,5.3,24.1,5.3,23.5,5.3z"/>
		<path class="st1" d="M23.5,23c0.6,0,1.2,0,1.8,0c0.1,0,0.2,0,0.3,0c0.2,0,0.2,0.2,0.2,0.3c0,0.1-0.1,0.2-0.2,0.2
			c-0.3,0.3-0.6,0.7-0.9,1c-0.6,0.6-1.2,1.1-1.8,1.5c-1.2,0.8-2.4,1.5-3.8,1.9c-0.1,0-0.2,0.1-0.4,0.1c0,0-0.1,0-0.1,0
			c-0.1,0-0.1-0.1-0.1-0.2c0-0.1,0-0.1,0.1-0.2c0.1-0.2,0.3-0.4,0.4-0.6c0.8-1.1,1.5-2.3,2.1-3.6c0-0.1,0.1-0.2,0.1-0.3
			c0.1-0.2,0.3-0.3,0.5-0.3c0.1,0,0.1,0,0.2,0C22.3,23,22.9,23,23.5,23z"/>
		<path class="st1" d="M5.5,5.3c-0.6,0-1.2,0-1.8,0c-0.1,0-0.2,0-0.3,0c-0.2,0-0.2-0.2-0.2-0.3c0-0.1,0.1-0.2,0.2-0.2
			c0.3-0.3,0.6-0.7,1-1c0.4-0.4,0.8-0.8,1.3-1.1c0.7-0.5,1.4-1,2.2-1.4C8.5,0.8,9.3,0.5,10,0.3c0.1,0,0.2,0,0.3-0.1c0,0,0.1,0,0.1,0
			c0.1,0,0.1,0.1,0.1,0.2c0,0.1,0,0.1-0.1,0.2c-0.1,0.2-0.3,0.4-0.4,0.6C9.3,2.3,8.6,3.4,8,4.7C8,4.8,8,4.9,7.9,5
			C7.8,5.1,7.6,5.2,7.4,5.3c-0.1,0-0.1,0-0.2,0C6.7,5.3,6.1,5.3,5.5,5.3z"/>
		<path class="st1" d="M5.5,23c0.6,0,1.1,0,1.7,0c0,0,0,0,0.1,0c0.3,0,0.6,0.1,0.7,0.4c0.1,0.3,0.3,0.5,0.4,0.8
			c0.5,1.1,1.1,2.1,1.9,3c0.1,0.1,0.2,0.3,0.3,0.4c0,0.1,0.1,0.1,0.1,0.2c0,0.1,0,0.2-0.1,0.2c-0.1,0-0.3,0-0.4,0
			c-0.6-0.2-1.2-0.4-1.7-0.7c-1.3-0.6-2.5-1.4-3.6-2.4c-0.5-0.4-0.9-0.9-1.3-1.3c-0.1-0.1-0.1-0.2-0.2-0.3c-0.1-0.2,0-0.3,0.2-0.3
			c0.1,0,0.2,0,0.3,0C4.3,23,4.9,23,5.5,23z"/>
		<path class="st1" d="M15.3,2.6c0-0.7,0-1.3,0-2c0-0.1,0-0.2,0-0.3c0,0,0-0.1,0-0.1C15.4,0,15.5,0,15.6,0c0.1,0.1,0.2,0.1,0.3,0.2
			C16.5,0.8,17,1.4,17.4,2C18,2.8,18.6,3.7,19,4.5c0,0.1,0.1,0.2,0.1,0.3c0,0.1,0,0.1,0,0.2c0,0.1,0,0.2-0.2,0.2
			c-0.1,0-0.2,0.1-0.3,0.1c-1,0-1.9,0-2.9,0c0,0-0.1,0-0.1,0c-0.3,0-0.4-0.2-0.4-0.4c0-0.1,0-0.1,0-0.2C15.3,3.9,15.3,3.2,15.3,2.6z
			"/>
		<path class="st1" d="M13.6,2.6c0,0.7,0,1.4,0,2.1c0,0.1,0,0.2,0,0.3c0,0.2-0.1,0.3-0.3,0.3c-0.1,0-0.2,0-0.2,0c-0.9,0-1.9,0-2.8,0
			c-0.1,0-0.2,0-0.3,0C9.8,5.2,9.8,5.1,9.8,5c0-0.1,0-0.2,0.1-0.3c0.2-0.4,0.4-0.8,0.7-1.2c0.5-0.9,1.2-1.8,1.9-2.5
			c0.2-0.3,0.5-0.5,0.8-0.8c0,0,0.1-0.1,0.1-0.1c0.1-0.1,0.3,0,0.3,0.1c0,0.1,0,0.1,0,0.2c0,0.5,0,0.9,0,1.4
			C13.6,2,13.6,2.3,13.6,2.6z"/>
		<path class="st1" d="M13.6,25.7c0,0.7,0,1.3,0,2c0,0.1,0,0.2,0,0.4c0,0.2-0.2,0.3-0.4,0.1c-0.2-0.1-0.3-0.3-0.4-0.4
			c-0.6-0.6-1.1-1.2-1.6-1.9c-0.5-0.7-0.9-1.4-1.3-2.2c0-0.1-0.1-0.2-0.1-0.3c0-0.1,0-0.1,0-0.2c0-0.1,0-0.2,0.2-0.3
			c0.1,0,0.2,0,0.3,0c0.8,0,1.6,0,2.4,0c0.1,0,0.2,0,0.4,0c0.1,0,0.1,0,0.2,0c0.3,0,0.4,0.2,0.4,0.4c0,0.1,0,0.2,0,0.2
			C13.6,24.3,13.6,25,13.6,25.7z"/>
		<path class="st1" d="M15.3,25.7c0-0.7,0-1.4,0-2c0-0.1,0-0.2,0-0.3c0-0.2,0.1-0.3,0.3-0.3c0.1,0,0.2,0,0.2,0c0.9,0,1.9,0,2.8,0
			c0.1,0,0.2,0,0.3,0c0.1,0,0.2,0.1,0.2,0.3c0,0.1,0,0.2-0.1,0.3c-0.2,0.5-0.5,0.9-0.8,1.4c-0.5,0.9-1.1,1.7-1.8,2.5
			c-0.2,0.2-0.5,0.5-0.7,0.7c0,0-0.1,0.1-0.2,0.1c-0.1,0.1-0.2,0-0.3-0.1c0-0.1,0-0.1,0-0.2c0-0.5,0-1,0-1.5
			C15.3,26.1,15.3,25.9,15.3,25.7z"/>
	</g>
</g>
</svg>
